# xmcd CD database file
#
# Track frame offsets:
#	150
#	25087
#	64622
#	88090
#	114910
#
# Disc length: 3022 seconds
#
# Revision: 0
# Processed by: cddbd v1.5PL3 Copyright (c) Steve Scherf et al.
# Submitted via: CDex 1.51
#
DISCID=330bcc05
DTITLE=Egberto Gismonti - Sol do meio dia
DYEAR=1977
DGENRE=Jazz
TTITLE0=Palacio de pinturas
TTITLE1=Raga
TTITLE2=Kalimba
TTITLE3=Coraçao
TTITLE4=Cafe
EXTD=YEAR: 1977
EXTT0=
EXTT1=
EXTT2=
EXTT3=
EXTT4=
PLAYORDER=
